#!OML:ASF E:/inclinewalkrobotboard/Project1/Captureday1/Session1/subject1.ASF
:FULLY-SPECIFIED
:DEGREES
76
root 0 0 0 76.28284234057696 -27.479078218015133 -45.499860939738085
lowerback -11.068721224424962 7.873370695327878 9.561032741162077
upperback -20.456113668353467 10.086446817344266 2.9142340873436043
thorax -15.457119279979928 3.9731663773194983 -1.7607089065113568
lowerneck -7.649865770345355 9.77974937402068 5.41624929893587
upperneck 11.626409444961693 11.691938311680676 7.272893770696822
head 4.792157406694235 6.273328328797793 2.074541135071987
rclavicle 2.224689060116709E-15 -5.12351597512243E-15
rhumerus 125.31527262701594 -28.90516124720589 -124.71379136487079
rradius 1.3275491181945007
rwrist 73.90376154066571
rhand 7.464508634624736 -9.840148239526316
rfingers 7.1250200000000286
rthumb 32.772802482011265 -36.89193861638995
lclavicle -2.09026594515766E-15 -4.995123574667748E-18
lhumerus 3.27436544213775 25.30803446178086 0.7894040087038263
lradius 9.495632557752696
lwrist -41.22803485836951
lhand 11.54600014664117 36.70712433794584
lfingers 7.1250200000000445
lthumb 36.672996909324254 63.87181648799708
rfemur 184.21266253762167 -218.28932904582027 -190.95535746056765
rtibia 69.20001958799341
rfoot -14.151113991965865 -13.01817741066197
rtoes 48.647120015939954
lfemur -105.80919291593611 35.00482232565304 -22.433063442359398
ltibia 63.62532451733938
lfoot -42.487083116674654 35.25353201202685
ltoes 39.839488422160066
77
root 0 0 0 76.2849689327804 -27.48414298337871 -45.49745820699137
lowerback -11.075531038460042 7.872424545429009 9.562517393333188
upperback -20.45884012648724 10.085141860463573 2.916968038356758
thorax -15.456089349976647 3.97261888505985 -1.7582743731822097
lowerneck -7.643509830967613 9.778553930764627 5.41605164495463
upperneck 11.636413581752375 11.689603503458008 7.274259110818978
head 4.794796058544049 6.27233549344254 2.074790709567257
rclavicle 3.1816573857309512E-15 -4.800523579900971E-15
rhumerus 123.28616116125716 -28.629082145386775 -123.04867711088261
rradius 1.431036805084144
rwrist 72.98460407516419
rhand 8.370460313344822 -10.275763349778709
rfingers 7.1250200000000286
rthumb 33.637668805224436 -37.17183716046801
lclavicle -1.8294138595804104E-15 2.807691214831431E-16
lhumerus 3.0109376830794776 25.382214415938762 1.0566719678276826
lradius 9.412586029829662
lwrist -41.247663373829255
lhand 11.464416353341026 36.682554685037346
lfingers 7.1250200000000445
lthumb 36.59560767883592 63.86192966794849
rfemur 184.37094107771003 -218.577382609666 -191.1285804915414
rtibia 69.12002535620447
rfoot -14.995610380123601 -12.34144978243138
rtoes 48.35864490515273
lfemur -105.73584000539819 35.035279482783025 -22.426777324739763
ltibia 63.38788939151415
lfoot -42.473705443194106 35.2993887073546
ltoes 39.937982045393724
78
root 0 0 0 76.28646979760828 -27.49218042748607 -45.49349781719312
lowerback -11.08218713723631 7.871768815839982 9.562479703057985
upperback -20.4613098777235 10.084201727147997 2.918944090146514
thorax -15.455102684372793 3.9723545576251222 -1.755804339214861
lowerneck -7.638401210214114 9.778227557401436 5.4162565109308405
upperneck 11.643086127830344 11.688635560320401 7.275740589152943
head 4.796316330658427 6.271989367540047 2.0751410271982946
rclavicle 3.8614970060222634E-15 -4.530147792300416E-15
rhumerus 121.503656978697 -28.28676088187638 -121.84830707872308
rradius 1.4487628116281783
rwrist 72.32322866208972
rhand 9.106104730660302 -10.615524004159836
rfingers 7.1250200000000286
rthumb 34.338491561290056 -37.38047342609684
lclavicle -1.6060075908549127E-15 5.334405651389467E-16
lhumerus 2.662492187929045 25.382458151383037 1.2446341640714707
lradius 9.372957646601932
lwrist -41.2703921385794
lhand 11.435523168841483 36.67517685453731
lfingers 7.1250200000000445
lthumb 36.56836685557854 63.859876270984415
rfemur 184.42311503038934 -218.77734613823196 -191.25237059196257
rtibia 69.01270625774912
rfoot -15.728767301779914 -11.87939187174448
rtoes 48.2203291064394
lfemur -105.77602310636311 35.07341987389145 -22.476900228205153
ltibia 63.26133596697622
lfoot -42.37040430337147 35.37073609016355
ltoes 40.004318793232805
79
root 0 0 0 76.28677573768563 -27.503762683560254 -45.48720689758748
lowerback -11.088943891315054 7.87120278086782 9.560714603096008
upperback -20.46309191842697 10.083377938348796 2.9199739222312524
thorax -15.453476989476075 3.9722669897128524 -1.7534349672609144
lowerneck -7.634811258802857 9.778087207898071 5.416749362253132
upperneck 11.648939478559903 11.687936338656508 7.276920157976118
head 4.7977218848602625 6.271783705106231 2.075443821558936
rclavicle 4.33796051792441E-15 -4.334992325208353E-15
rhumerus 119.96152314651331 -27.944384491707368 -120.90002545611611
rradius 1.4328101402278648
rwrist 71.82979272395512
rhand 9.721044445322626 -10.893850004778647
rfingers 7.125020000000028
rthumb 34.92356010251187 -37.547008021125514
lclavicle -1.4361279713991755E-15 7.1849647723464315E-16
lhumerus 2.314323063251237 25.364222460600345 1.3888206384216204
lradius 9.347915590942527
lwrist -41.29421100708654
lhand 11.429108553863735 36.67250017072169
lfingers 7.1250200000000445
lthumb 36.5625355388078 63.858828523889855
rfemur 184.41535843207527 -218.92124174349243 -191.34780394821715
rtibia 68.90157464817993
rfoot -16.355005201337853 -11.563650169754593
rtoes 48.1874222797109
lfemur -105.88184843164554 35.10992128331048 -22.554375921735407
ltibia 63.230097480809924
lfoot -42.22499680603076 35.44493968388246
ltoes 40.0414600293577
80
root 0 0 0 76.29346852169664 -27.475798390797486 -45.48763332172594
lowerback -11.100913100931145 7.869847172151935 9.564230447866008
upperback -20.472723678037724 10.081780585427662 2.9273119345755707
thorax -15.456962154534017 3.971639144299128 -1.7469615171502753
lowerneck -7.618455884194502 9.777833789098523 5.415629237862481
upperneck 11.655500264896824 11.688238943167322 7.278571269338537
head 4.797428603791843 6.271635633426834 2.0756015683983158
rclavicle 4.8671256048763104E-15 -4.0719148817911665E-15
rhumerus 118.09708803898226 -27.49639132596012 -119.7371269892231
rradius 1.4528827309901082
rwrist 71.22480954898825
rhand 10.417180235181725 -11.18973875884935
rfingers 7.125020000000026
rthumb 35.58416166137631 -37.711774444375
lclavicle -1.1391008918056408E-15 9.64172014488159E-16
lhumerus 1.5475789596546168 25.11404937474984 1.4708638893518966
lradius 9.426559614107024
lwrist -41.30738124165463
lhand 11.512234496320001 36.71878984057721
lfingers 7.125020000000045
lthumb 36.64196162254861 63.887798041073744
rfemur 184.35687715816417 -219.09112590435143 -191.46058014778123
rtibia 68.72995977411935
rfoot -17.224710272279726 -11.19712406843668
rtoes 48.18460027092236
lfemur -106.10687469325474 35.17608994524245 -22.683716362171694
ltibia 63.12532673648569
lfoot -41.922266000740905 35.5917087142393
ltoes 40.10932739166086
